# xmcd
#
# Track frame offsets:
#	150
#	26702
#	45953
#	65009
#	84386
#	102599
#	131181
#	150363
#	168583
#	187423
#	209893
#	227041
#
# Disc length: 3245 seconds
#
# Revision: 0
# Processed by: cddbd v1.5.2PL0 Copyright (c) Steve Scherf et al.
# Submitted via: EasyCDDAExtractor 15.2.1.1
#
DISCID=ae0cab0c
DTITLE=Timo Gross - Fallen from Grace
DYEAR=2011
DGENRE=Blues
TTITLE0=Fallen From Grace
TTITLE1=Slow Down
TTITLE2=Stand up
TTITLE3=Open Road
TTITLE4=Bad
TTITLE5=One Of A Kind
TTITLE6=Will You Take Me
TTITLE7=Right On Time
TTITLE8=Small Town Blues
TTITLE9=Travellin Man
TTITLE10=Love Ain't Given Up On Me
TTITLE11=I Don't Know Why
EXTD=
EXTT0=
EXTT1=
EXTT2=
EXTT3=
EXTT4=
EXTT5=
EXTT6=
EXTT7=
EXTT8=
EXTT9=
EXTT10=
EXTT11=
PLAYORDER=
